# xmcd
# 
# Track frame offsets:
#     150
#     16735
#     28880
#     40905
#     52375
#     66797
#     79050
#     91997
#     107030
#     120890
#     133825
#     147427
#     158022
#     172472
#     181132
#     197450
#     208825
#     219447
#     231697
#     243752
#     254592
#     268177
#     281350
# 
# Disc length: 3880
# 
# Revision: 5
# Processed by: cddbd v1.5.2PL0 Copyright (c) Steve Scherf et al.
# Submitted via: BonkEnc v1.0.8
# 
DISCID=590f2617
DTITLE=Var - Heartbeat CD1
DYEAR=1996
DGENRE=Pop
TTITLE0=Righteous Brothers - You've Lost That Lovin' Feeling
TTITLE1=Sandie Shaw - (There's) Always Something There To Remind Me
TTITLE2=Peter And Gordon - A World Without Love
TTITLE3=Herman's Hermits - I'm Into Something Good
TTITLE4=Sonny And Cher - I Got You Babe
TTITLE5=Otis Redding - (Sittin' On The) Dock Of The Bay
TTITLE6=Percy Sledge - When A Man Loves A Woman
TTITLE7=Englebert Humperdink - Release Me
TTITLE8=Tom Jones - Green Green Grass Of Home
TTITLE9=Jim Reeves - Distant Drums
TTITLE10=Elvis Presley - Can't Help Falling In Love
TTITLE11=Cliff Richard - The Minute You're Gone
TTITLE12=Walker Brothers - Make It Easy On Yourself
TTITLE13=Gerry And The Pacemakers - How Do You Do It ?
TTITLE14=Gene Pitney - Something's Gotten Hold Of My Heart
TTITLE15=Johnny Tillotson - Poetry In Motion
TTITLE16=Neil Sedaka - Breaking Up Is Hard To Do
TTITLE17=Shirelles - Will You Still Love Me Tomorrow
TTITLE18=John Leyton - Johnny Remember Me
TTITLE19=Everly Brothers - Cathy's Clown
TTITLE20=Troggs - Love Is All Around
TTITLE21=Jimmy Ruffin - What Becomes Of The Broken Hearted
TTITLE22=Buddy Holly - Heartbeat
EXTD=Music from Yorkshire Television TV Series HEARTBEAT - Stories about a Yorkshire country policeman in the 1960. YEAR: 1996
EXTT0=The Righteous Brothers
EXTT1=Sandie Shaw
EXTT2=
EXTT3=
EXTT4=
EXTT5=
EXTT6=
EXTT7=
EXTT8=
EXTT9=
EXTT10=
EXTT11=
EXTT12=
EXTT13=
EXTT14=
EXTT15=
EXTT16=
EXTT17=
EXTT18=
EXTT19=
EXTT20=
EXTT21=
EXTT22=Buddy Holly
PLAYORDER=
